<svg xmlns="http://www.w3.org/2000/svg" width="24" height="24" fill="none" viewBox="0 0 24 24">
  <path fill="#34A853" d="M8.616 17.779a24.27 24.27 0 0 1 1.89 2.788c.483.915.684 1.535 1.036 2.636.216.609.412.79.832.79.457 0 .665-.308.825-.786.333-1.04.595-1.835 1.007-2.585.81-1.449 1.815-2.736 2.803-3.973.267-.35 1.997-2.39 2.775-4 0 0 .957-1.767.957-4.236 0-2.31-.944-3.912-.944-3.912l-2.716.728-1.65 4.345-.408.6-.082.108-.109.136-.19.217-.273.272-1.469 1.197-3.673 2.121-.611 3.554Z"/>
  <path fill="#FBBC04" d="M4.825 12.353C5.72 14.4 7.45 16.2 8.62 17.78l6.212-7.36s-.875 1.146-2.463 1.146a3.182 3.182 0 0 1-3.197-3.193c0-1.221.735-2.06.735-2.06L5.69 7.443l-.865 4.91Z"/>
  <path fill="#4285F4" d="M14.902.378c2.063.666 3.83 2.062 4.897 4.122l-4.965 5.917s.735-.854.735-2.068c0-1.822-1.535-3.183-3.192-3.183-1.568 0-2.468 1.142-2.468 1.142V2.581L14.902.378Z"/>
  <path fill="#1A73E8" d="M5.963 2.993C7.195 1.518 9.363 0 12.353 0c1.45 0 2.543.38 2.543.38L9.905 6.313H6.368l-.405-3.32Z"/>
  <path fill="#EA4335" d="M4.825 12.353S4 10.738 4 8.398c0-2.212.86-4.145 1.963-5.405l3.944 3.32-5.082 6.04Z"/>
</svg>
