<svg xmlns="http://www.w3.org/2000/svg" width="24" height="24" fill="none" viewBox="0 0 24 24">
  <path fill="#1A1A18" fill-rule="evenodd" d="M10.975 3.002a1 1 0 0 1-.754 1.196c-.196.045-.39.097-.583.156a1 1 0 1 1-.59-1.911c.24-.075.484-.14.73-.195a1 1 0 0 1 1.197.754Zm2.05 0a1 1 0 0 1 1.196-.754c4.454 1.01 7.78 4.992 7.78 9.752 0 5.523-4.478 10-10 10-4.76 0-8.743-3.325-9.753-7.779a1 1 0 0 1 1.95-.442 8 8 0 1 0 9.58-9.58 1 1 0 0 1-.753-1.197ZM6.615 4.72a1 1 0 0 1-.054 1.414 8.17 8.17 0 0 0-.427.426A1 1 0 0 1 4.668 5.2c.17-.184.348-.362.532-.533a1 1 0 0 1 1.414.053ZM12 6a1 1 0 0 1 1 1v4.586l2.707 2.707a1 1 0 0 1-1.414 1.414l-3-3A1 1 0 0 1 11 12V7a1 1 0 0 1 1-1ZM3.693 8.388a1 1 0 0 1 .661 1.25c-.059.192-.11.387-.156.583a1 1 0 0 1-1.95-.442c.056-.247.121-.49.195-.73a1 1 0 0 1 1.25-.661Z" clip-rule="evenodd"/>
</svg>
