<svg xmlns="http://www.w3.org/2000/svg" width="24" height="24" fill="none" viewBox="0 0 24 24">
  <g clip-path="url(#a)">
    <path fill="#fff" d="m9.899 6.5 7.915 4.57-3.713 6.43-7.915-4.57L9.899 6.5Z"/>
    <path fill="#0092FE" d="M17.336 3.551C12.669.604 6.496 2 3.55 6.667.604 11.334 2 17.507 6.67 20.45c4.666 2.944 10.835 1.548 13.78-3.118C23.395 12.667 22 6.498 17.336 3.551Zm-6.307 9.98c-.21-.036-.688.129-.912.19l-2.101.57c-.37.1-.742.204-1.115.295a1.203 1.203 0 0 1-.317.024c-.62-.107-.75-.852-.295-1.24.168-.144.325-.28.485-.415l6.187-5.209.666-.558c.275-.234.584-.555.96-.59a.808.808 0 0 1 .523.143c.548.407.326 1.003.222 1.574l-1.58 8.657c-.093.51-.105 1.226-.775 1.276a.659.659 0 0 1-.678-.47c-.12-.37-.213-.753-.314-1.13l-.581-2.177c-.067-.254-.132-.56-.225-.805a.26.26 0 0 0-.15-.134Z"/>
    <path fill="#fff" d="M1.852 5.595C5.39-.01 12.803-1.685 18.408 1.855c5.602 3.537 7.276 10.947 3.74 16.55-3.537 5.603-10.945 7.28-16.55 3.744-5.606-3.536-7.284-10.948-3.746-16.554Zm15.484-2.044C12.669.604 6.496 2 3.55 6.667l-.134.22c-2.767 4.64-1.342 10.666 3.253 13.565 4.594 2.897 10.644 1.59 13.64-2.902l.141-.217C23.395 12.667 22 6.498 17.336 3.551Zm-3.633 13.72c-.071.453-.18.936-.726.977a.659.659 0 0 1-.678-.47c-.12-.37-.213-.753-.314-1.13l-.117-.436 1.835 1.059Zm-5.33-3.077-.357.097c-.37.1-.742.204-1.115.295a1.203 1.203 0 0 1-.317.024c-.62-.107-.75-.852-.295-1.24l.265-.227 1.82 1.05ZM15.11 6.74c.548.407.326 1.003.222 1.574l-.218 1.195-2.52-1.455.367-.309.666-.558c.275-.234.584-.555.96-.59a.808.808 0 0 1 .523.143Z"/>
  </g>
  <defs>
    <clipPath id="a">
      <path fill="#fff" d="M0 0h24v24H0z"/>
    </clipPath>
  </defs>
</svg>
