<svg xmlns="http://www.w3.org/2000/svg" width="24" height="24" fill="none" viewBox="0 0 24 24">
  <path fill="#1A1A18" fill-rule="evenodd" d="M3 5.5A2.5 2.5 0 0 1 5.5 3H18a3 3 0 0 1 3 3v14a1 1 0 0 1-1.524.852l-2.726-1.678-2.726 1.678a1 1 0 0 1-1.048 0l-2.726-1.678-2.726 1.678A1.001 1.001 0 0 1 6 20v-6H4a1 1 0 0 1-1-1V5.5Zm5 12.71 1.726-1.062a1 1 0 0 1 1.048 0l2.726 1.678 2.726-1.678a1 1 0 0 1 1.048 0L19 18.21V6a1 1 0 0 0-1-1H7.95c.033.162.05.329.05.5v12.71ZM5.5 5a.5.5 0 0 0-.5.5V12h1V5.5a.5.5 0 0 0-.5-.5ZM10 9a1 1 0 0 1 1-1h5a1 1 0 1 1 0 2h-5a1 1 0 0 1-1-1Zm0 4a1 1 0 0 1 1-1h4a1 1 0 0 1 0 2h-4a1 1 0 0 1-1-1Z" clip-rule="evenodd"/>
</svg>
