<svg xmlns="http://www.w3.org/2000/svg" width="24" height="24" fill="none" viewBox="0 0 24 24">
  <path fill="#1A1A18" fill-rule="evenodd" d="M17 3a2 2 0 0 1 1.492.668l.108.132 3.704 4.939a2 2 0 0 1-.012 2.416l-.108.13-9.259 10.184a1.25 1.25 0 0 1-1.753.096l-.097-.096-9.259-10.185a2 2 0 0 1-.215-2.407l.095-.138L5.4 3.8a2 2 0 0 1 1.43-.793L7 3h10Zm-2.477 8H9.477L12 17.307 14.523 11Zm5.217 0h-3.063l-2.406 6.015L19.74 11ZM7.323 11H4.261l5.468 6.015L7.323 11Zm5.059-6h-.764l-2 4h4.764l-2-4ZM17 5h-2.382l2 4H20l-3-4ZM9.382 5H7L4 9h3.382l2-4Z" clip-rule="evenodd"/>
</svg>
