<svg xmlns="http://www.w3.org/2000/svg" width="24" height="24" fill="none" viewBox="0 0 24 24">
  <path fill="#1A1A18" d="m3.685 15.444.924-.383-.924.383Zm0-6.888.924.383-.924-.383Zm14.679-2.92-.707.707.707-.707Zm0 12.728-.707-.707.707.707Zm-7.778-9.192a1 1 0 0 0-1.414 1.414l.707-.707.707-.707Zm2.828 5.656a1 1 0 0 0 1.414-1.414l-.707.707-.707.707Zm1.414-4.242a1 1 0 0 0-1.414-1.414l.707.707.707.707Zm-5.656 2.828a1 1 0 1 0 1.414 1.414l-.707-.707-.707-.707ZM12 21v-1c-1.05 0-2.09-.207-3.061-.609l-.383.924-.383.924A10 10 0 0 0 12 22v-1Zm-3.444-.685.383-.924a8 8 0 0 1-2.596-1.734l-.707.707-.707.707a10 10 0 0 0 3.244 2.168l.383-.924Zm-2.92-1.951.707-.707a8 8 0 0 1-1.734-2.595l-.924.382-.924.383A10 10 0 0 0 4.93 19.07l.707-.707Zm-1.95-2.92.923-.383A8 8 0 0 1 4 12H2a10 10 0 0 0 .761 3.827l.924-.383ZM3 12h1a8 8 0 0 1 .609-3.061l-.924-.383-.924-.383A10 10 0 0 0 2 12h1Zm.685-3.444.924.383a8 8 0 0 1 1.734-2.596l-.707-.707-.707-.707A10 10 0 0 0 2.76 8.173l.924.383Zm1.951-2.92.707.707A8 8 0 0 1 8.94 4.61l-.383-.924-.383-.924A10 10 0 0 0 4.93 4.93l.707.707Zm2.92-1.95.383.923A8 8 0 0 1 12 4V2a10 10 0 0 0-3.827.761l.383.924ZM12 3v1a8 8 0 0 1 5.657 2.343l.707-.707.707-.707A10 10 0 0 0 12 2v1Zm6.364 2.636-.707.707A8 8 0 0 1 20 12h2a10 10 0 0 0-2.929-7.071l-.707.707ZM21 12h-1a8 8 0 0 1-2.343 5.657l.707.707.707.707A10 10 0 0 0 22 12h-1Zm-2.636 6.364-.707-.707A8 8 0 0 1 12 20v2a10 10 0 0 0 7.071-2.929l-.707-.707ZM9.879 9.879l-.707.707 2.12 2.121L12 12l.707-.707-2.12-2.121-.708.707ZM12 12l-.707.707 2.12 2.121.708-.707.707-.707-2.12-2.121L12 12Zm0 0 .707.707 2.121-2.12-.707-.708-.707-.707-2.121 2.12L12 12Zm0 0-.707-.707-2.121 2.12.707.708.707.707 2.121-2.12L12 12Z"/>
</svg>
