<svg xmlns="http://www.w3.org/2000/svg" width="24" height="24" fill="none" viewBox="0 0 24 24">
  <path fill="#1A1A18" d="M12.838 17.638a1.21 1.21 0 0 0 .362-.888c0-.35-.12-.646-.362-.888a1.202 1.202 0 0 0-.888-.362c-.35 0-.646.122-.887.363-.24.241-.362.537-.363.887-.001.35.12.646.363.888s.539.363.887.362c.348 0 .644-.122.888-.363M12 22a9.733 9.733 0 0 1-3.9-.788 10.114 10.114 0 0 1-3.175-2.137c-.9-.9-1.612-1.958-2.137-3.175A9.76 9.76 0 0 1 2 12c0-1.383.262-2.683.788-3.9a10.121 10.121 0 0 1 2.137-3.175A10.07 10.07 0 0 1 8.1 2.788 9.742 9.742 0 0 1 12 2c1.382 0 2.682.263 3.9.788a10.084 10.084 0 0 1 3.175 2.137c.899.9 1.611 1.958 2.138 3.175A9.679 9.679 0 0 1 22 12a9.806 9.806 0 0 1-.788 3.9 10.032 10.032 0 0 1-2.137 3.175 10.16 10.16 0 0 1-3.175 2.138A9.689 9.689 0 0 1 12 22Zm0-2c2.233 0 4.125-.775 5.675-2.325C19.225 16.125 20 14.233 20 12c0-2.233-.775-4.125-2.325-5.675C16.125 4.775 14.233 4 12 4c-2.233 0-4.125.775-5.675 2.325C4.775 7.875 4 9.767 4 12c0 2.233.775 4.125 2.325 5.675C7.875 19.225 9.767 20 12 20Zm.1-12.3c.417 0 .78.133 1.088.4.309.267.463.6.462 1 0 .367-.112.692-.337.975-.225.283-.479.55-.763.8-.383.333-.72.7-1.012 1.1-.291.4-.437.85-.438 1.35 0 .233.088.43.263.588a.88.88 0 0 0 .612.237.89.89 0 0 0 .638-.25c.175-.167.288-.375.337-.625.067-.35.217-.662.45-.937a9.69 9.69 0 0 1 .75-.788 6.43 6.43 0 0 0 .988-1.2c.275-.433.413-.917.412-1.45 0-.85-.346-1.546-1.037-2.087-.691-.541-1.496-.812-2.413-.813-.633 0-1.237.133-1.812.4a2.801 2.801 0 0 0-1.313 1.225.9.9 0 0 0-.112.638.738.738 0 0 0 .337.512c.233.133.475.175.725.125a.996.996 0 0 0 .625-.425 1.83 1.83 0 0 1 .688-.575c.275-.133.563-.2.862-.2Z"/>
</svg>
