<svg xmlns="http://www.w3.org/2000/svg" width="24" height="24" fill="none" viewBox="0 0 24 24">
  <path fill="#1A1A18" fill-rule="evenodd" d="M3.172 3.172C2 4.343 2 6.23 2 10v4c0 3.771 0 5.657 1.172 6.828C4.344 22 6.229 22 10 22h4c3.771 0 5.657 0 6.828-1.172C21.999 19.656 22 17.771 22 14v-4c0-2.84 0-4.61-.5-5.81V17a3.619 3.619 0 0 1-2.56-1.06l-.752-.752c-.722-.722-1.082-1.082-1.491-1.234a2 2 0 0 0-1.394 0c-.409.152-.77.512-1.49 1.234l-.114.113c-.585.585-.878.878-1.189.932a1 1 0 0 1-.699-.134c-.268-.166-.431-.547-.758-1.308L11 14.667c-.75-1.75-1.124-2.624-1.778-2.952a2 2 0 0 0-1.065-.205c-.729.062-1.401.735-2.747 2.08L3.5 15.5V2.887a2.823 2.823 0 0 0-.328.285Z" clip-rule="evenodd"/>
  <mask id="a" width="20" height="20" x="2" y="2" maskUnits="userSpaceOnUse" style="mask-type:luminance">
    <path fill="#fff" d="M2 10c0-3.771 0-5.657 1.172-6.828C4.344 2.001 6.229 2 10 2h4c3.771 0 5.657 0 6.828 1.172C21.999 4.344 22 6.229 22 10v4c0 3.771 0 5.657-1.172 6.828C19.656 21.999 17.771 22 14 22h-4c-3.771 0-5.657 0-6.828-1.172C2.001 19.656 2 17.771 2 14v-4Z"/>
  </mask>
  <g mask="url(#a)">
    <path stroke="#1A1A18" stroke-width="4" d="M2 10c0-3.771 0-5.657 1.172-6.828C4.344 2.001 6.229 2 10 2h4c3.771 0 5.657 0 6.828 1.172C21.999 4.344 22 6.229 22 10v4c0 3.771 0 5.657-1.172 6.828C19.656 21.999 17.771 22 14 22h-4c-3.771 0-5.657 0-6.828-1.172C2.001 19.656 2 17.771 2 14v-4Z"/>
  </g>
  <path fill="#1A1A18" d="M15 11a2 2 0 1 0 0-4 2 2 0 0 0 0 4Z"/>
</svg>
