<svg xmlns="http://www.w3.org/2000/svg" width="24" height="24" fill="none" viewBox="0 0 24 24">
  <path fill="#1A1A18" fill-rule="evenodd" d="M17.553 16.106a1 1 0 0 1 1.283.345l.058.102 2 4a1 1 0 0 1-.765 1.439L20 22H4a1 1 0 0 1-.945-1.328l.05-.12 2-4a1 1 0 0 1 1.836.788l-.047.107L5.618 20h12.764l-1.276-2.553a1 1 0 0 1 .447-1.341ZM12 2a7 7 0 0 1 7 7c0 2.382-1.289 4.317-2.623 5.69a15.7 15.7 0 0 1-2.418 2.008l-.373.246-.332.209-.149.09-.257.148c-.528.3-1.168.3-1.696 0l-.257-.149-.31-.189-.17-.109-.374-.246a15.705 15.705 0 0 1-2.418-2.008C6.29 13.317 5 11.382 5 9a7 7 0 0 1 7-7Zm0 2a5 5 0 0 0-5 5c0 1.636.89 3.095 2.057 4.296a14 14 0 0 0 2.314 1.885l.34.217c.106.065.202.123.29.174l.29-.174.338-.217a13.998 13.998 0 0 0 2.314-1.885C16.11 12.096 17 10.636 17 9a5 5 0 0 0-5-5Zm0 2a3 3 0 1 1 0 6 3 3 0 0 1 0-6Zm0 2a1 1 0 1 0 0 2 1 1 0 0 0 0-2Z" clip-rule="evenodd"/>
</svg>
