<svg xmlns="http://www.w3.org/2000/svg" width="24" height="24" fill="none" viewBox="0 0 24 24">
  <path fill="#1A1A18" fill-rule="evenodd" d="M21.84 6.056a1.5 1.5 0 0 0-2.063-1.626l-17.1 7.2c-1.192.502-1.253 2.226 0 2.746 1.24.517 2.5.99 3.774 1.418 1.168.386 2.442.743 3.463.844.279.334.63.656.988.95.547.45 1.205.913 1.885 1.357 1.362.89 2.873 1.74 3.89 2.295 1.218.66 2.675-.1 2.893-1.427l2.27-13.757ZM4.594 12.993l15.124-6.368-2.118 12.84c-1-.543-2.438-1.356-3.72-2.194a20.05 20.05 0 0 1-1.71-1.23 7.96 7.96 0 0 1-.425-.373l3.96-3.96a1 1 0 0 0-1.413-1.415L9.955 14.63c-.734-.094-1.756-.366-2.878-.736a49 49 0 0 1-2.482-.902h-.001Z" clip-rule="evenodd"/>
</svg>
