<svg xmlns="http://www.w3.org/2000/svg" width="24" height="24" fill="none" viewBox="0 0 24 24">
  <path fill="#1A1A18" fill-rule="evenodd" d="M13.08 2.868a1.25 1.25 0 0 0-2.16 0L8.127 7.665l-5.43 1.177a1.25 1.25 0 0 0-.667 2.054l3.7 4.141-.56 5.525a1.25 1.25 0 0 0 1.748 1.27l5.083-2.24 5.082 2.24a1.25 1.25 0 0 0 1.748-1.27l-.56-5.525 3.7-4.14a1.25 1.25 0 0 0-.668-2.055l-5.428-1.176-2.794-4.798ZM12 17.523c.172 0 .345.035.505.106l4.205 1.854-.463-4.573a1.248 1.248 0 0 1 .313-.959l3.062-3.427-4.492-.973a1.25 1.25 0 0 1-.817-.592L12 4.987v12.536Z" clip-rule="evenodd"/>
</svg>
