<svg xmlns="http://www.w3.org/2000/svg" width="24" height="24" fill="none" viewBox="0 0 24 24">
  <path fill="#1A1A18" fill-rule="evenodd" d="M19.8 10.18C19.49 7 17.61 2 11.8 2c-5.81 0-7.69 5-8 8.18A2.79 2.79 0 0 0 2 12.8v1.4a2.8 2.8 0 0 0 5.6 0v-1.4a2.81 2.81 0 0 0-1.75-2.59C6.05 8.37 7.03 4 11.8 4c4.77 0 5.74 4.37 5.94 6.21A2.8 2.8 0 0 0 16 12.8v1.4a2.811 2.811 0 0 0 1.59 2.52c-.42.79-1.49 1.86-4.12 2.18A2 2 0 1 0 11.8 22a2 2 0 0 0 1.78-1.11c4.29-.49 5.66-2.7 6.09-4a2.79 2.79 0 0 0 1.93-2.69v-1.4a2.79 2.79 0 0 0-1.8-2.62ZM5.6 14.2a.8.8 0 0 1-1.6 0v-1.4a.8.8 0 1 1 1.6 0v1.4ZM18 12.8a.8.8 0 0 1 1.6 0v1.4a.8.8 0 1 1-1.6 0v-1.4Z" clip-rule="evenodd"/>
</svg>
