<svg xmlns="http://www.w3.org/2000/svg" width="24" height="24" fill="none" viewBox="0 0 24 24">
  <path fill="#1A1A18" fill-rule="evenodd" d="M6.798 2.884a7.002 7.002 0 0 1 9.294 8.565l4.394 3.718a3.762 3.762 0 0 1-1.067 6.367 3.76 3.76 0 0 1-4.233-1.067l-3.717-4.394a7.002 7.002 0 0 1-8.565-9.295c.358-.894 1.48-1.007 2.063-.373L8.17 9.883l1.446-.288.29-1.45-3.48-3.197c-.634-.583-.523-1.706.372-2.064ZM8.805 4.42l2.763 2.54c.322.296.466.738.38 1.165l-.47 2.354a1.25 1.25 0 0 1-.982.98l-2.35.468a1.25 1.25 0 0 1-1.164-.38L4.438 8.785a5.002 5.002 0 0 0 6.804 5.25 1.26 1.26 0 0 1 1.422.355l4.05 4.786a1.762 1.762 0 0 0 2.986-.496 1.759 1.759 0 0 0-.506-1.984l-4.785-4.05a1.26 1.26 0 0 1-.355-1.422 5 5 0 0 0-5.25-6.804Z" clip-rule="evenodd"/>
</svg>
