<svg xmlns="http://www.w3.org/2000/svg" width="24" height="24" fill="none" viewBox="0 0 24 24">
  <path fill="#1A1A18" fill-rule="evenodd" d="M13 20.5v-7c0-1.1-.392-2.042-1.175-2.825C11.042 9.892 10.1 9.5 9 9.5H7V6.1c0-.733.25-1.35.75-1.85S8.867 3.5 9.6 3.5c.534 0 1.022.147 1.463.438.441.291.762.679.962 1.162L18.5 20.5H17a.97.97 0 0 0-.712.288.962.962 0 0 0-.288.712c0 .283.097.52.288.712A.965.965 0 0 0 17 22.5h5a.957.957 0 0 0 .712-.287A.976.976 0 0 0 23 21.5a.964.964 0 0 0-.287-.712A.968.968 0 0 0 22 20.5h-1.325L13.85 4.3a4.565 4.565 0 0 0-1.7-2.037A4.514 4.514 0 0 0 9.6 1.5c-1.283 0-2.37.447-3.262 1.338C5.446 3.729 5 4.817 5 6.1v3.4H4c-.55 0-1.02.197-1.412.588A1.923 1.923 0 0 0 2 11.5v2c0 .283.096.52.288.712.192.191.43.287.712.288.283 0 .52-.095.712-.287A.968.968 0 0 0 4 13.5v-2h5c.55 0 1.022.197 1.413.588.391.391.587.862.587 1.412v7H9.5a.97.97 0 0 0-.712.288.962.962 0 0 0-.288.712c0 .283.097.52.288.712a.965.965 0 0 0 .712.288H11a1.92 1.92 0 0 0 1.413-.587A1.93 1.93 0 0 0 13 20.5Z" clip-rule="evenodd"/>
  <path fill="#1A1A18" fill-rule="evenodd" d="M1 19.5c0 .833.292 1.542.875 2.125A2.893 2.893 0 0 0 4 22.5c.833 0 1.542-.292 2.125-.875A2.893 2.893 0 0 0 7 19.5c0-.833-.292-1.542-.875-2.125A2.893 2.893 0 0 0 4 16.5c-.833 0-1.542.292-2.125.875A2.893 2.893 0 0 0 1 19.5Zm3.713.713A.97.97 0 0 0 5 19.5a.995.995 0 0 0-.073-.393.933.933 0 0 0-.215-.319A.973.973 0 0 0 4 18.5a.962.962 0 0 0-.712.288A.97.97 0 0 0 3 19.5c0 .282.096.52.288.713.192.193.43.289.712.287a.986.986 0 0 0 .713-.287Z" clip-rule="evenodd"/>
</svg>
