<svg xmlns="http://www.w3.org/2000/svg" width="24" height="24" fill="none" viewBox="0 0 24 24">
  <path fill="#1A1A18" fill-rule="evenodd" d="M12 13.8a1 1 0 0 1-1-1v-5a1 1 0 0 1 2 0v5a1 1 0 0 1-1 1Z" clip-rule="evenodd"/>
  <path fill="#1A1A18" d="M10.947 15.958a1.053 1.053 0 1 1 2.106 0 1.053 1.053 0 0 1-2.106 0Z"/>
  <path fill="#1A1A18" fill-rule="evenodd" d="m15.607 4.642 5.877 10.72c1.511 2.759-.474 6.138-3.608 6.138H6.124c-3.134 0-5.12-3.38-3.607-6.14L8.393 4.64c1.566-2.854 5.648-2.854 7.214 0v.002Zm-1.803 1c-.783-1.43-2.825-1.43-3.607 0L4.32 16.36c-.757 1.38.236 3.069 1.803 3.069h11.752c1.567 0 2.56-1.69 1.803-3.07L13.803 5.642Z" clip-rule="evenodd"/>
</svg>
